<?xml version="1.0" encoding="utf-8"?>
<!-- Generator: Adobe Illustrator 16.0.0, SVG Export Plug-In . SVG Version: 6.00 Build 0)  -->
<!DOCTYPE svg PUBLIC "-//W3C//DTD SVG 1.1//EN" "http://www.w3.org/Graphics/SVG/1.1/DTD/svg11.dtd">
<svg version="1.1" id="Layer_1" xmlns="http://www.w3.org/2000/svg" xmlns:xlink="http://www.w3.org/1999/xlink" x="0px" y="0px"
	 width="4800px" height="4800px" viewBox="0 0 4800 4800" enable-background="new 0 0 4800 4800" xml:space="preserve">
<line fill="none" stroke="#000000" stroke-miterlimit="1" stroke-dasharray="4, 1" x1="100.5" y1="0" x2="100.5" y2="4800"/>
<line fill="none" stroke="#000000" stroke-miterlimit="1" stroke-dasharray="4, 1" x1="300.5" y1="0" x2="300.5" y2="4800"/>
<line fill="none" stroke="#000000" stroke-miterlimit="1" stroke-dasharray="4, 1" x1="500.5" y1="0" x2="500.5" y2="4800"/>
<line fill="none" stroke="#000000" stroke-miterlimit="1" stroke-dasharray="4, 1" x1="700.5" y1="0" x2="700.5" y2="4800"/>
<line fill="none" stroke="#000000" stroke-miterlimit="1" stroke-dasharray="4, 1" x1="900.5" y1="0" x2="900.5" y2="4800"/>
<line fill="none" stroke="#000000" stroke-miterlimit="1" stroke-dasharray="4, 1" x1="1100.5" y1="0" x2="1100.5" y2="4800"/>
<line fill="none" stroke="#000000" stroke-miterlimit="1" stroke-dasharray="4, 1" x1="1300.5" y1="0" x2="1300.5" y2="4800"/>
<line fill="none" stroke="#000000" stroke-miterlimit="1" stroke-dasharray="4, 1" x1="1500.5" y1="0" x2="1500.5" y2="4800"/>
<line fill="none" stroke="#000000" stroke-miterlimit="1" stroke-dasharray="4, 1" x1="1700.5" y1="0" x2="1700.5" y2="4800"/>
<line fill="none" stroke="#000000" stroke-miterlimit="1" stroke-dasharray="4, 1" x1="1900.5" y1="0" x2="1900.5" y2="4800"/>
<line fill="none" stroke="#000000" stroke-miterlimit="1" stroke-dasharray="4, 1" x1="2100.5" y1="0" x2="2100.5" y2="4800"/>
<line fill="none" stroke="#000000" stroke-miterlimit="1" stroke-dasharray="4, 1" x1="2300.5" y1="0" x2="2300.5" y2="4800"/>
<line fill="none" stroke="#000000" stroke-miterlimit="1" stroke-dasharray="4, 1" x1="2500.5" y1="0" x2="2500.5" y2="4800"/>
<line fill="none" stroke="#000000" stroke-miterlimit="1" stroke-dasharray="4, 1" x1="2700.5" y1="0" x2="2700.5" y2="4800"/>
<line fill="none" stroke="#000000" stroke-miterlimit="1" stroke-dasharray="4, 1" x1="2900.5" y1="0" x2="2900.5" y2="4800"/>
<line fill="none" stroke="#000000" stroke-miterlimit="1" stroke-dasharray="4, 1" x1="3100.5" y1="0" x2="3100.5" y2="4800"/>
<line fill="none" stroke="#000000" stroke-miterlimit="1" stroke-dasharray="4, 1" x1="3300.5" y1="0" x2="3300.5" y2="4800"/>
<line fill="none" stroke="#000000" stroke-miterlimit="1" stroke-dasharray="4, 1" x1="3500.5" y1="0" x2="3500.5" y2="4800"/>
<line fill="none" stroke="#000000" stroke-miterlimit="1" stroke-dasharray="4, 1" x1="3700.5" y1="0" x2="3700.5" y2="4800"/>
<line fill="none" stroke="#000000" stroke-miterlimit="1" stroke-dasharray="4, 1" x1="3900.5" y1="0" x2="3900.5" y2="4800"/>
<line fill="none" stroke="#000000" stroke-miterlimit="1" stroke-dasharray="4, 1" x1="4100.5" y1="0" x2="4100.5" y2="4800"/>
<line fill="none" stroke="#000000" stroke-miterlimit="1" stroke-dasharray="4, 1" x1="4300.5" y1="0" x2="4300.5" y2="4800"/>
<line fill="none" stroke="#000000" stroke-miterlimit="1" stroke-dasharray="4, 1" x1="4500.5" y1="0" x2="4500.5" y2="4800"/>
<line fill="none" stroke="#000000" stroke-miterlimit="1" stroke-dasharray="4, 1" x1="4700.5" y1="0" x2="4700.5" y2="4800"/>
<line fill="none" stroke="#000000" stroke-miterlimit="1" stroke-dasharray="4, 1" x1="0" y1="4700.5" x2="4800" y2="4700.5"/>
<line fill="none" stroke="#000000" stroke-miterlimit="1" stroke-dasharray="4, 1" x1="0" y1="4500.5" x2="4800" y2="4500.5"/>
<line fill="none" stroke="#000000" stroke-miterlimit="1" stroke-dasharray="4, 1" x1="0" y1="4300.5" x2="4800" y2="4300.5"/>
<line fill="none" stroke="#000000" stroke-miterlimit="1" stroke-dasharray="4, 1" x1="0" y1="4100.5" x2="4800" y2="4100.5"/>
<line fill="none" stroke="#000000" stroke-miterlimit="1" stroke-dasharray="4, 1" x1="0" y1="3900.5" x2="4800" y2="3900.5"/>
<line fill="none" stroke="#000000" stroke-miterlimit="1" stroke-dasharray="4, 1" x1="0" y1="3700.5" x2="4800" y2="3700.5"/>
<line fill="none" stroke="#000000" stroke-miterlimit="1" stroke-dasharray="4, 1" x1="0" y1="3500.5" x2="4800" y2="3500.5"/>
<line fill="none" stroke="#000000" stroke-miterlimit="1" stroke-dasharray="4, 1" x1="0" y1="3300.5" x2="4800" y2="3300.5"/>
<line fill="none" stroke="#000000" stroke-miterlimit="1" stroke-dasharray="4, 1" x1="0" y1="3100.5" x2="4800" y2="3100.5"/>
<line fill="none" stroke="#000000" stroke-miterlimit="1" stroke-dasharray="4, 1" x1="0" y1="2900.5" x2="4800" y2="2900.5"/>
<line fill="none" stroke="#000000" stroke-miterlimit="1" stroke-dasharray="4, 1" x1="0" y1="2700.5" x2="4800" y2="2700.5"/>
<line fill="none" stroke="#000000" stroke-miterlimit="1" stroke-dasharray="4, 1" x1="0" y1="2500.5" x2="4800" y2="2500.5"/>
<line fill="none" stroke="#000000" stroke-miterlimit="1" stroke-dasharray="4, 1" x1="0" y1="2300.5" x2="4800" y2="2300.5"/>
<line fill="none" stroke="#000000" stroke-miterlimit="1" stroke-dasharray="4, 1" x1="0" y1="2100.5" x2="4800" y2="2100.5"/>
<line fill="none" stroke="#000000" stroke-miterlimit="1" stroke-dasharray="4, 1" x1="0" y1="1900.5" x2="4800" y2="1900.5"/>
<line fill="none" stroke="#000000" stroke-miterlimit="1" stroke-dasharray="4, 1" x1="0" y1="1700.5" x2="4800" y2="1700.5"/>
<line fill="none" stroke="#000000" stroke-miterlimit="1" stroke-dasharray="4, 1" x1="0" y1="1500.5" x2="4800" y2="1500.5"/>
<line fill="none" stroke="#000000" stroke-miterlimit="1" stroke-dasharray="4, 1" x1="0" y1="1300.5" x2="4800" y2="1300.5"/>
<line fill="none" stroke="#000000" stroke-miterlimit="1" stroke-dasharray="4, 1" x1="0" y1="1100.5" x2="4800" y2="1100.5"/>
<line fill="none" stroke="#000000" stroke-miterlimit="1" stroke-dasharray="4, 1" x1="0" y1="900.5" x2="4800" y2="900.5"/>
<line fill="none" stroke="#000000" stroke-miterlimit="1" stroke-dasharray="4, 1" x1="0" y1="700.5" x2="4800" y2="700.5"/>
<line fill="none" stroke="#000000" stroke-miterlimit="1" stroke-dasharray="4, 1" x1="0" y1="500.5" x2="4800" y2="500.5"/>
<line fill="none" stroke="#000000" stroke-miterlimit="1" stroke-dasharray="4, 1" x1="0" y1="300.5" x2="4800" y2="300.5"/>
<line fill="none" stroke="#000000" stroke-miterlimit="1" stroke-dasharray="4, 1" x1="0" y1="100.5" x2="4800" y2="100.5"/>
</svg>
