<?xml version="1.0" encoding="utf-8"?>
<!-- Generator: Adobe Illustrator 16.0.0, SVG Export Plug-In . SVG Version: 6.00 Build 0)  -->
<!DOCTYPE svg PUBLIC "-//W3C//DTD SVG 1.1//EN" "http://www.w3.org/Graphics/SVG/1.1/DTD/svg11.dtd">
<svg version="1.1" id="Layer_1" xmlns="http://www.w3.org/2000/svg" xmlns:xlink="http://www.w3.org/1999/xlink" x="0px" y="0px"
	 width="1600px" height="1600px" viewBox="0 0 1600 1600" enable-background="new 0 0 1600 1600" xml:space="preserve">
<line fill="none" stroke="#000000" stroke-miterlimit="1" stroke-dasharray="1" x1="100.5" y1="0" x2="100.5" y2="1600"/>
<line fill="none" stroke="#000000" stroke-miterlimit="1" stroke-dasharray="1" x1="300.5" y1="0" x2="300.5" y2="1600"/>
<line fill="none" stroke="#000000" stroke-miterlimit="1" stroke-dasharray="1" x1="500.5" y1="0" x2="500.5" y2="1600"/>
<line fill="none" stroke="#000000" stroke-miterlimit="1" stroke-dasharray="1" x1="700.5" y1="0" x2="700.5" y2="1600"/>
<line fill="none" stroke="#000000" stroke-miterlimit="1" stroke-dasharray="1" x1="900.5" y1="0" x2="900.5" y2="1600"/>
<line fill="none" stroke="#000000" stroke-miterlimit="1" stroke-dasharray="1" x1="1100.5" y1="0" x2="1100.5" y2="1600"/>
<line fill="none" stroke="#000000" stroke-miterlimit="1" stroke-dasharray="1" x1="1300.5" y1="0" x2="1300.5" y2="1600"/>
<line fill="none" stroke="#000000" stroke-miterlimit="1" stroke-dasharray="1" x1="1500.5" y1="0" x2="1500.5" y2="1600"/>
<line fill="none" stroke="#000000" stroke-miterlimit="1" stroke-dasharray="1" x1="0" y1="1500.5" x2="1600" y2="1500.5"/>
<line fill="none" stroke="#000000" stroke-miterlimit="1" stroke-dasharray="1" x1="0" y1="1300.5" x2="1600" y2="1300.5"/>
<line fill="none" stroke="#000000" stroke-miterlimit="1" stroke-dasharray="1" x1="0" y1="1100.5" x2="1600" y2="1100.5"/>
<line fill="none" stroke="#000000" stroke-miterlimit="1" stroke-dasharray="1" x1="0" y1="900.5" x2="1600" y2="900.5"/>
<line fill="none" stroke="#000000" stroke-miterlimit="1" stroke-dasharray="1" x1="0" y1="700.5" x2="1600" y2="700.5"/>
<line fill="none" stroke="#000000" stroke-miterlimit="1" stroke-dasharray="1" x1="0" y1="500.5" x2="1600" y2="500.5"/>
<line fill="none" stroke="#000000" stroke-miterlimit="1" stroke-dasharray="1" x1="0" y1="300.5" x2="1600" y2="300.5"/>
<line fill="none" stroke="#000000" stroke-miterlimit="1" stroke-dasharray="1" x1="0" y1="100.5" x2="1600" y2="100.5"/>
</svg>
